<mxfile host="app.diagrams.net" modified="2024-04-10T19:16:05.140Z" agent="Mozilla/5.0 (Windows NT 10.0; Win64; x64) AppleWebKit/537.36 (KHTML, like Gecko) Chrome/123.0.0.0 Safari/537.36" etag="1xzWnTakz7xF9v2pUCa5" version="24.2.1" type="device" pages="2">
  <diagram name="Sistema_de_login" id="__y8nIajWblU7KDIfTp-">
    <mxGraphModel dx="1434" dy="772" grid="1" gridSize="10" guides="1" tooltips="1" connect="1" arrows="1" fold="1" page="1" pageScale="1" pageWidth="850" pageHeight="1100" math="0" shadow="0">
      <root>
        <mxCell id="0" />
        <mxCell id="1" parent="0" />
        <mxCell id="IJDrskCBwoM3XrPBJXzl-1" value="" style="rounded=0;whiteSpace=wrap;html=1;" vertex="1" parent="1">
          <mxGeometry x="40" y="40" width="320" height="360" as="geometry" />
        </mxCell>
        <mxCell id="IJDrskCBwoM3XrPBJXzl-2" value="Pagina Incial" style="text;html=1;align=center;verticalAlign=middle;whiteSpace=wrap;rounded=0;" vertex="1" parent="1">
          <mxGeometry x="150" y="10" width="100" height="30" as="geometry" />
        </mxCell>
        <mxCell id="IJDrskCBwoM3XrPBJXzl-8" value="Footer" style="rounded=0;whiteSpace=wrap;html=1;" vertex="1" parent="1">
          <mxGeometry x="40" y="350" width="320" height="50" as="geometry" />
        </mxCell>
        <mxCell id="IJDrskCBwoM3XrPBJXzl-9" value="" style="rounded=0;whiteSpace=wrap;html=1;" vertex="1" parent="1">
          <mxGeometry x="40" y="40" width="320" height="60" as="geometry" />
        </mxCell>
        <mxCell id="IJDrskCBwoM3XrPBJXzl-10" value="Nome do Website" style="text;html=1;align=center;verticalAlign=middle;whiteSpace=wrap;rounded=0;" vertex="1" parent="1">
          <mxGeometry x="110" y="55" width="100" height="30" as="geometry" />
        </mxCell>
        <mxCell id="IJDrskCBwoM3XrPBJXzl-11" value="Autenticção" style="rounded=1;whiteSpace=wrap;html=1;" vertex="1" parent="1">
          <mxGeometry x="250" y="50" width="100" height="40" as="geometry" />
        </mxCell>
        <mxCell id="IJDrskCBwoM3XrPBJXzl-12" value="Razões para usar a aplicação" style="rounded=0;whiteSpace=wrap;html=1;" vertex="1" parent="1">
          <mxGeometry x="70" y="230" width="260" height="120" as="geometry" />
        </mxCell>
        <mxCell id="IJDrskCBwoM3XrPBJXzl-14" value="" style="rounded=0;whiteSpace=wrap;html=1;" vertex="1" parent="1">
          <mxGeometry x="440" y="440" width="320" height="360" as="geometry" />
        </mxCell>
        <mxCell id="IJDrskCBwoM3XrPBJXzl-15" value="" style="rounded=0;whiteSpace=wrap;html=1;" vertex="1" parent="1">
          <mxGeometry x="440" y="440" width="70" height="360" as="geometry" />
        </mxCell>
        <mxCell id="IJDrskCBwoM3XrPBJXzl-17" value="Pagina Workflow" style="text;html=1;align=center;verticalAlign=middle;whiteSpace=wrap;rounded=0;" vertex="1" parent="1">
          <mxGeometry x="550" y="410" width="100" height="30" as="geometry" />
        </mxCell>
        <mxCell id="IJDrskCBwoM3XrPBJXzl-18" value="" style="rounded=0;whiteSpace=wrap;html=1;" vertex="1" parent="1">
          <mxGeometry x="440" y="570" width="70" height="180" as="geometry" />
        </mxCell>
        <mxCell id="IJDrskCBwoM3XrPBJXzl-19" value="Menu" style="text;html=1;align=center;verticalAlign=middle;whiteSpace=wrap;rounded=0;" vertex="1" parent="1">
          <mxGeometry x="445" y="450" width="60" height="30" as="geometry" />
        </mxCell>
        <mxCell id="IJDrskCBwoM3XrPBJXzl-20" value="Lista de ficheiros divididos em Pastas ou Topicos&lt;div&gt;&lt;br&gt;&lt;/div&gt;" style="text;html=1;align=center;verticalAlign=middle;whiteSpace=wrap;rounded=0;" vertex="1" parent="1">
          <mxGeometry x="440" y="585" width="70" height="150" as="geometry" />
        </mxCell>
        <mxCell id="IJDrskCBwoM3XrPBJXzl-21" value="Opções" style="rounded=0;whiteSpace=wrap;html=1;" vertex="1" parent="1">
          <mxGeometry x="440" y="480" width="70" height="90" as="geometry" />
        </mxCell>
        <mxCell id="IJDrskCBwoM3XrPBJXzl-22" value="Informação tipo footer" style="text;html=1;align=center;verticalAlign=middle;whiteSpace=wrap;rounded=0;" vertex="1" parent="1">
          <mxGeometry x="440" y="750" width="70" height="50" as="geometry" />
        </mxCell>
        <mxCell id="IJDrskCBwoM3XrPBJXzl-23" value="" style="rounded=0;whiteSpace=wrap;html=1;" vertex="1" parent="1">
          <mxGeometry x="510" y="490" width="230" height="270" as="geometry" />
        </mxCell>
        <mxCell id="IJDrskCBwoM3XrPBJXzl-24" value="Sistema de workflow" style="text;html=1;align=center;verticalAlign=middle;whiteSpace=wrap;rounded=0;" vertex="1" parent="1">
          <mxGeometry x="550" y="460" width="100" height="30" as="geometry" />
        </mxCell>
        <mxCell id="IJDrskCBwoM3XrPBJXzl-25" value="" style="rounded=0;whiteSpace=wrap;html=1;" vertex="1" parent="1">
          <mxGeometry x="640" y="690" width="120" height="110" as="geometry" />
        </mxCell>
        <mxCell id="IJDrskCBwoM3XrPBJXzl-26" value="Chatbot" style="text;html=1;align=center;verticalAlign=middle;whiteSpace=wrap;rounded=0;" vertex="1" parent="1">
          <mxGeometry x="670" y="660" width="60" height="30" as="geometry" />
        </mxCell>
        <mxCell id="IJDrskCBwoM3XrPBJXzl-27" value="" style="rounded=0;whiteSpace=wrap;html=1;" vertex="1" parent="1">
          <mxGeometry x="650" y="710" width="100" height="60" as="geometry" />
        </mxCell>
        <mxCell id="IJDrskCBwoM3XrPBJXzl-28" value="" style="rounded=0;whiteSpace=wrap;html=1;" vertex="1" parent="1">
          <mxGeometry x="650" y="780" width="100" height="10" as="geometry" />
        </mxCell>
        <mxCell id="IJDrskCBwoM3XrPBJXzl-31" value="" style="rounded=0;whiteSpace=wrap;html=1;" vertex="1" parent="1">
          <mxGeometry x="440" y="80" width="320" height="220" as="geometry" />
        </mxCell>
        <mxCell id="IJDrskCBwoM3XrPBJXzl-32" value="Pagina Login" style="text;html=1;align=center;verticalAlign=middle;whiteSpace=wrap;rounded=0;" vertex="1" parent="1">
          <mxGeometry x="550" y="10" width="100" height="30" as="geometry" />
        </mxCell>
        <mxCell id="IJDrskCBwoM3XrPBJXzl-39" value="" style="rounded=0;whiteSpace=wrap;html=1;" vertex="1" parent="1">
          <mxGeometry x="440" y="80" width="320" height="40" as="geometry" />
        </mxCell>
        <mxCell id="IJDrskCBwoM3XrPBJXzl-40" value="Login" style="text;html=1;align=center;verticalAlign=middle;whiteSpace=wrap;rounded=0;" vertex="1" parent="1">
          <mxGeometry x="445" y="85" width="75" height="30" as="geometry" />
        </mxCell>
        <mxCell id="IJDrskCBwoM3XrPBJXzl-42" value="Username:" style="text;html=1;align=center;verticalAlign=middle;whiteSpace=wrap;rounded=0;" vertex="1" parent="1">
          <mxGeometry x="460" y="160" width="60" height="30" as="geometry" />
        </mxCell>
        <mxCell id="IJDrskCBwoM3XrPBJXzl-43" value="" style="rounded=0;whiteSpace=wrap;html=1;" vertex="1" parent="1">
          <mxGeometry x="530" y="165" width="170" height="20" as="geometry" />
        </mxCell>
        <mxCell id="IJDrskCBwoM3XrPBJXzl-44" value="" style="rounded=0;whiteSpace=wrap;html=1;" vertex="1" parent="1">
          <mxGeometry x="530" y="200" width="170" height="20" as="geometry" />
        </mxCell>
        <mxCell id="IJDrskCBwoM3XrPBJXzl-45" value="Password:" style="text;html=1;align=center;verticalAlign=middle;whiteSpace=wrap;rounded=0;" vertex="1" parent="1">
          <mxGeometry x="460" y="195" width="60" height="30" as="geometry" />
        </mxCell>
        <mxCell id="IJDrskCBwoM3XrPBJXzl-46" value="Cancel" style="rounded=1;whiteSpace=wrap;html=1;" vertex="1" parent="1">
          <mxGeometry x="700" y="270" width="50" height="20" as="geometry" />
        </mxCell>
        <mxCell id="IJDrskCBwoM3XrPBJXzl-47" value="Login" style="rounded=1;whiteSpace=wrap;html=1;" vertex="1" parent="1">
          <mxGeometry x="640" y="270" width="50" height="20" as="geometry" />
        </mxCell>
        <mxCell id="IJDrskCBwoM3XrPBJXzl-49" value="" style="rounded=0;whiteSpace=wrap;html=1;" vertex="1" parent="1">
          <mxGeometry x="470" y="240" width="10" height="10" as="geometry" />
        </mxCell>
        <mxCell id="IJDrskCBwoM3XrPBJXzl-50" value="Stay logged in?" style="text;html=1;align=center;verticalAlign=middle;whiteSpace=wrap;rounded=0;" vertex="1" parent="1">
          <mxGeometry x="490" y="230" width="110" height="30" as="geometry" />
        </mxCell>
        <mxCell id="IJDrskCBwoM3XrPBJXzl-52" value="" style="endArrow=classic;html=1;rounded=0;entryX=0;entryY=0.5;entryDx=0;entryDy=0;" edge="1" parent="1" source="IJDrskCBwoM3XrPBJXzl-11" target="IJDrskCBwoM3XrPBJXzl-39">
          <mxGeometry width="50" height="50" relative="1" as="geometry">
            <mxPoint x="400" y="390" as="sourcePoint" />
            <mxPoint x="450" y="340" as="targetPoint" />
          </mxGeometry>
        </mxCell>
        <mxCell id="IJDrskCBwoM3XrPBJXzl-53" value="" style="endArrow=classic;html=1;rounded=0;entryX=0.75;entryY=0;entryDx=0;entryDy=0;" edge="1" parent="1" source="IJDrskCBwoM3XrPBJXzl-47" target="IJDrskCBwoM3XrPBJXzl-14">
          <mxGeometry width="50" height="50" relative="1" as="geometry">
            <mxPoint x="400" y="390" as="sourcePoint" />
            <mxPoint x="450" y="340" as="targetPoint" />
          </mxGeometry>
        </mxCell>
        <mxCell id="IJDrskCBwoM3XrPBJXzl-54" value="Slide com imagens que insentivam o uso d&lt;span style=&quot;background-color: initial;&quot;&gt;esta aplicação&lt;/span&gt;&lt;div&gt;&lt;span style=&quot;background-color: initial;&quot;&gt;(carossel)&lt;/span&gt;&lt;/div&gt;" style="rounded=0;whiteSpace=wrap;html=1;" vertex="1" parent="1">
          <mxGeometry x="40" y="100" width="320" height="130" as="geometry" />
        </mxCell>
        <mxCell id="IJDrskCBwoM3XrPBJXzl-55" value="Icon" style="rounded=1;whiteSpace=wrap;html=1;" vertex="1" parent="1">
          <mxGeometry x="50" y="45" width="50" height="50" as="geometry" />
        </mxCell>
      </root>
    </mxGraphModel>
  </diagram>
  <diagram name="Detalhes_da_pagina_inicial" id="xhOIq7GaGYnCvwSuMJes">
    <mxGraphModel dx="1434" dy="772" grid="1" gridSize="10" guides="1" tooltips="1" connect="1" arrows="1" fold="1" page="1" pageScale="1" pageWidth="850" pageHeight="1100" math="0" shadow="0">
      <root>
        <mxCell id="djJ8CZdlFaPJGCWNVNBQ-0" />
        <mxCell id="djJ8CZdlFaPJGCWNVNBQ-1" parent="djJ8CZdlFaPJGCWNVNBQ-0" />
        <mxCell id="djJ8CZdlFaPJGCWNVNBQ-2" value="" style="rounded=0;whiteSpace=wrap;html=1;" vertex="1" parent="djJ8CZdlFaPJGCWNVNBQ-1">
          <mxGeometry x="40" y="40" width="320" height="360" as="geometry" />
        </mxCell>
        <mxCell id="djJ8CZdlFaPJGCWNVNBQ-3" value="Pagina Incial" style="text;html=1;align=center;verticalAlign=middle;whiteSpace=wrap;rounded=0;" vertex="1" parent="djJ8CZdlFaPJGCWNVNBQ-1">
          <mxGeometry x="150" y="10" width="100" height="30" as="geometry" />
        </mxCell>
        <mxCell id="djJ8CZdlFaPJGCWNVNBQ-4" value="Footer" style="rounded=0;whiteSpace=wrap;html=1;" vertex="1" parent="djJ8CZdlFaPJGCWNVNBQ-1">
          <mxGeometry x="40" y="350" width="320" height="50" as="geometry" />
        </mxCell>
        <mxCell id="djJ8CZdlFaPJGCWNVNBQ-5" value="" style="rounded=0;whiteSpace=wrap;html=1;" vertex="1" parent="djJ8CZdlFaPJGCWNVNBQ-1">
          <mxGeometry x="40" y="40" width="320" height="60" as="geometry" />
        </mxCell>
        <mxCell id="djJ8CZdlFaPJGCWNVNBQ-6" value="Nome do Website" style="text;html=1;align=center;verticalAlign=middle;whiteSpace=wrap;rounded=0;" vertex="1" parent="djJ8CZdlFaPJGCWNVNBQ-1">
          <mxGeometry x="110" y="55" width="100" height="30" as="geometry" />
        </mxCell>
        <mxCell id="djJ8CZdlFaPJGCWNVNBQ-7" value="Autenticção" style="rounded=1;whiteSpace=wrap;html=1;" vertex="1" parent="djJ8CZdlFaPJGCWNVNBQ-1">
          <mxGeometry x="250" y="50" width="100" height="40" as="geometry" />
        </mxCell>
        <mxCell id="djJ8CZdlFaPJGCWNVNBQ-8" value="Razões para usar a aplicação" style="rounded=0;whiteSpace=wrap;html=1;" vertex="1" parent="djJ8CZdlFaPJGCWNVNBQ-1">
          <mxGeometry x="70" y="230" width="260" height="120" as="geometry" />
        </mxCell>
        <mxCell id="djJ8CZdlFaPJGCWNVNBQ-37" value="Slide com imagens que insentivam o uso d&lt;span style=&quot;background-color: initial;&quot;&gt;esta aplicação&lt;/span&gt;&lt;div&gt;&lt;span style=&quot;background-color: initial;&quot;&gt;(carossel)&lt;/span&gt;&lt;/div&gt;" style="rounded=0;whiteSpace=wrap;html=1;" vertex="1" parent="djJ8CZdlFaPJGCWNVNBQ-1">
          <mxGeometry x="40" y="100" width="320" height="130" as="geometry" />
        </mxCell>
        <mxCell id="djJ8CZdlFaPJGCWNVNBQ-38" value="Icon" style="rounded=1;whiteSpace=wrap;html=1;" vertex="1" parent="djJ8CZdlFaPJGCWNVNBQ-1">
          <mxGeometry x="50" y="45" width="50" height="50" as="geometry" />
        </mxCell>
        <mxCell id="v0I3wwLuFAHfJaeAyiGZ-1" value="" style="rounded=0;whiteSpace=wrap;html=1;" vertex="1" parent="djJ8CZdlFaPJGCWNVNBQ-1">
          <mxGeometry x="490" y="40" width="320" height="60" as="geometry" />
        </mxCell>
        <mxCell id="v0I3wwLuFAHfJaeAyiGZ-2" value="Login" style="rounded=1;whiteSpace=wrap;html=1;" vertex="1" parent="djJ8CZdlFaPJGCWNVNBQ-1">
          <mxGeometry x="710" y="50" width="45" height="40" as="geometry" />
        </mxCell>
        <mxCell id="v0I3wwLuFAHfJaeAyiGZ-3" value="Nome do Website" style="text;html=1;align=center;verticalAlign=middle;whiteSpace=wrap;rounded=0;" vertex="1" parent="djJ8CZdlFaPJGCWNVNBQ-1">
          <mxGeometry x="560" y="55" width="100" height="30" as="geometry" />
        </mxCell>
        <mxCell id="v0I3wwLuFAHfJaeAyiGZ-4" value="Icon" style="rounded=1;whiteSpace=wrap;html=1;" vertex="1" parent="djJ8CZdlFaPJGCWNVNBQ-1">
          <mxGeometry x="500" y="45" width="50" height="50" as="geometry" />
        </mxCell>
        <mxCell id="v0I3wwLuFAHfJaeAyiGZ-5" value="Header da Pagina Incial" style="text;html=1;align=center;verticalAlign=middle;whiteSpace=wrap;rounded=0;" vertex="1" parent="djJ8CZdlFaPJGCWNVNBQ-1">
          <mxGeometry x="575" y="10" width="150" height="30" as="geometry" />
        </mxCell>
        <mxCell id="v0I3wwLuFAHfJaeAyiGZ-6" value="" style="endArrow=classic;html=1;rounded=0;" edge="1" parent="djJ8CZdlFaPJGCWNVNBQ-1" source="djJ8CZdlFaPJGCWNVNBQ-5" target="v0I3wwLuFAHfJaeAyiGZ-1">
          <mxGeometry width="50" height="50" relative="1" as="geometry">
            <mxPoint x="400" y="170" as="sourcePoint" />
            <mxPoint x="450" y="120" as="targetPoint" />
          </mxGeometry>
        </mxCell>
        <mxCell id="v0I3wwLuFAHfJaeAyiGZ-9" value="Signin" style="rounded=1;whiteSpace=wrap;html=1;" vertex="1" parent="djJ8CZdlFaPJGCWNVNBQ-1">
          <mxGeometry x="760" y="50" width="45" height="40" as="geometry" />
        </mxCell>
        <mxCell id="v0I3wwLuFAHfJaeAyiGZ-10" value="" style="endArrow=classic;html=1;rounded=0;startArrow=classic;startFill=1;" edge="1" parent="djJ8CZdlFaPJGCWNVNBQ-1" source="v0I3wwLuFAHfJaeAyiGZ-1" target="v0I3wwLuFAHfJaeAyiGZ-12">
          <mxGeometry width="50" height="50" relative="1" as="geometry">
            <mxPoint x="460" y="140" as="sourcePoint" />
            <mxPoint x="450" y="120" as="targetPoint" />
          </mxGeometry>
        </mxCell>
        <mxCell id="v0I3wwLuFAHfJaeAyiGZ-11" value="transparent mas ao fazer scrolldown fica solido. branco ou preto dependendo se está em &quot;bright mode&quot; ou &quot;dark mode&quot;" style="shape=note;whiteSpace=wrap;html=1;backgroundOutline=1;darkOpacity=0.05;" vertex="1" parent="djJ8CZdlFaPJGCWNVNBQ-1">
          <mxGeometry x="520" y="105" width="80" height="230" as="geometry" />
        </mxCell>
        <mxCell id="v0I3wwLuFAHfJaeAyiGZ-12" value="" style="rounded=0;whiteSpace=wrap;html=1;fillColor=#f5f5f5;fontColor=#333333;strokeColor=#666666;" vertex="1" parent="djJ8CZdlFaPJGCWNVNBQ-1">
          <mxGeometry x="490" y="340" width="320" height="60" as="geometry" />
        </mxCell>
        <mxCell id="v0I3wwLuFAHfJaeAyiGZ-13" value="Login" style="rounded=1;whiteSpace=wrap;html=1;" vertex="1" parent="djJ8CZdlFaPJGCWNVNBQ-1">
          <mxGeometry x="710" y="350" width="45" height="40" as="geometry" />
        </mxCell>
        <mxCell id="v0I3wwLuFAHfJaeAyiGZ-14" value="Nome do Website" style="text;html=1;align=center;verticalAlign=middle;whiteSpace=wrap;rounded=0;" vertex="1" parent="djJ8CZdlFaPJGCWNVNBQ-1">
          <mxGeometry x="560" y="355" width="100" height="30" as="geometry" />
        </mxCell>
        <mxCell id="v0I3wwLuFAHfJaeAyiGZ-15" value="Icon" style="rounded=1;whiteSpace=wrap;html=1;" vertex="1" parent="djJ8CZdlFaPJGCWNVNBQ-1">
          <mxGeometry x="500" y="345" width="50" height="50" as="geometry" />
        </mxCell>
        <mxCell id="v0I3wwLuFAHfJaeAyiGZ-16" value="Signin" style="rounded=1;whiteSpace=wrap;html=1;" vertex="1" parent="djJ8CZdlFaPJGCWNVNBQ-1">
          <mxGeometry x="760" y="350" width="45" height="40" as="geometry" />
        </mxCell>
        <mxCell id="v0I3wwLuFAHfJaeAyiGZ-17" value="" style="endArrow=none;html=1;rounded=0;exitX=0.975;exitY=0.183;exitDx=0;exitDy=0;exitPerimeter=0;" edge="1" parent="djJ8CZdlFaPJGCWNVNBQ-1" source="v0I3wwLuFAHfJaeAyiGZ-11">
          <mxGeometry width="50" height="50" relative="1" as="geometry">
            <mxPoint x="400" y="170" as="sourcePoint" />
            <mxPoint x="650" y="130" as="targetPoint" />
          </mxGeometry>
        </mxCell>
        <mxCell id="v0I3wwLuFAHfJaeAyiGZ-18" value="Ter varias imagens que percorrem um carrossel continuamente.&lt;br&gt;&lt;br&gt;Estas devem ter varios tamanhos para se adquarem aos varios dispositivos e melhorar load time." style="rounded=0;whiteSpace=wrap;html=1;" vertex="1" parent="djJ8CZdlFaPJGCWNVNBQ-1">
          <mxGeometry x="490" y="440" width="320" height="130" as="geometry" />
        </mxCell>
        <mxCell id="v0I3wwLuFAHfJaeAyiGZ-19" value="" style="endArrow=classic;html=1;rounded=0;edgeStyle=orthogonalEdgeStyle;" edge="1" parent="djJ8CZdlFaPJGCWNVNBQ-1" source="djJ8CZdlFaPJGCWNVNBQ-37" target="v0I3wwLuFAHfJaeAyiGZ-18">
          <mxGeometry width="50" height="50" relative="1" as="geometry">
            <mxPoint x="400" y="370" as="sourcePoint" />
            <mxPoint x="450" y="320" as="targetPoint" />
            <Array as="points">
              <mxPoint x="440" y="165" />
              <mxPoint x="440" y="505" />
            </Array>
          </mxGeometry>
        </mxCell>
        <mxCell id="v0I3wwLuFAHfJaeAyiGZ-21" value="" style="rounded=0;whiteSpace=wrap;html=1;" vertex="1" parent="djJ8CZdlFaPJGCWNVNBQ-1">
          <mxGeometry x="485" y="650" width="320" height="120" as="geometry" />
        </mxCell>
        <mxCell id="v0I3wwLuFAHfJaeAyiGZ-24" value="Descreve como inovador é o produto, quais a tecnologias usadas, etc..." style="rounded=0;whiteSpace=wrap;html=1;" vertex="1" parent="djJ8CZdlFaPJGCWNVNBQ-1">
          <mxGeometry x="515" y="650" width="260" height="120" as="geometry" />
        </mxCell>
        <mxCell id="v0I3wwLuFAHfJaeAyiGZ-25" value="" style="endArrow=classic;html=1;rounded=0;edgeStyle=orthogonalEdgeStyle;" edge="1" parent="djJ8CZdlFaPJGCWNVNBQ-1" source="djJ8CZdlFaPJGCWNVNBQ-8" target="v0I3wwLuFAHfJaeAyiGZ-24">
          <mxGeometry width="50" height="50" relative="1" as="geometry">
            <mxPoint x="370" y="175" as="sourcePoint" />
            <mxPoint x="500" y="515" as="targetPoint" />
            <Array as="points">
              <mxPoint x="390" y="290" />
              <mxPoint x="390" y="710" />
            </Array>
          </mxGeometry>
        </mxCell>
        <mxCell id="VJkW_w93T8vgOC8L7XJC-0" value="" style="rounded=0;whiteSpace=wrap;html=1;" vertex="1" parent="djJ8CZdlFaPJGCWNVNBQ-1">
          <mxGeometry x="40" y="910" width="760" height="160" as="geometry" />
        </mxCell>
        <mxCell id="v0I3wwLuFAHfJaeAyiGZ-26" value="@ 2024 Vasco J. Diogo B. Ricardo D. Ricardo B.&amp;nbsp; &amp;nbsp; Privacy&amp;nbsp; Terms&amp;nbsp; Cookie Preferences" style="rounded=0;whiteSpace=wrap;html=1;" vertex="1" parent="djJ8CZdlFaPJGCWNVNBQ-1">
          <mxGeometry x="40" y="1020" width="760" height="50" as="geometry" />
        </mxCell>
        <mxCell id="VJkW_w93T8vgOC8L7XJC-1" value="Text" style="text;html=1;align=center;verticalAlign=middle;whiteSpace=wrap;rounded=0;" vertex="1" parent="djJ8CZdlFaPJGCWNVNBQ-1">
          <mxGeometry x="40" y="910" width="250" height="110" as="geometry" />
        </mxCell>
        <mxCell id="VJkW_w93T8vgOC8L7XJC-4" value="Text" style="text;html=1;align=center;verticalAlign=middle;whiteSpace=wrap;rounded=0;" vertex="1" parent="djJ8CZdlFaPJGCWNVNBQ-1">
          <mxGeometry x="550" y="910" width="250" height="110" as="geometry" />
        </mxCell>
        <mxCell id="VJkW_w93T8vgOC8L7XJC-5" value="Text" style="text;html=1;align=center;verticalAlign=middle;whiteSpace=wrap;rounded=0;" vertex="1" parent="djJ8CZdlFaPJGCWNVNBQ-1">
          <mxGeometry x="295" y="910" width="250" height="110" as="geometry" />
        </mxCell>
        <mxCell id="VJkW_w93T8vgOC8L7XJC-7" value="" style="endArrow=classic;html=1;rounded=0;edgeStyle=orthogonalEdgeStyle;entryX=0.5;entryY=0;entryDx=0;entryDy=0;" edge="1" parent="djJ8CZdlFaPJGCWNVNBQ-1" source="djJ8CZdlFaPJGCWNVNBQ-4" target="VJkW_w93T8vgOC8L7XJC-5">
          <mxGeometry width="50" height="50" relative="1" as="geometry">
            <mxPoint x="340" y="300" as="sourcePoint" />
            <mxPoint x="525" y="720" as="targetPoint" />
            <Array as="points">
              <mxPoint x="200" y="810" />
              <mxPoint x="420" y="810" />
            </Array>
          </mxGeometry>
        </mxCell>
      </root>
    </mxGraphModel>
  </diagram>
</mxfile>
